<svg xmlns="http://www.w3.org/2000/svg" xmlns:xlink="http://www.w3.org/1999/xlink" width="500" zoomAndPan="magnify" viewBox="0 0 375 374.999991" height="500" preserveAspectRatio="xMidYMid meet" version="1.0"><defs><clipPath id="2fd1281e5d"><path d="M 8 30 L 367 30 L 367 349.828125 L 8 349.828125 Z M 8 30 " clip-rule="nonzero"/></clipPath></defs><g clip-path="url(#2fd1281e5d)"><path fill="#ffcc00" d="M 158.976562 47.054688 L 12.628906 300.460938 C -0.03125 322.378906 15.792969 349.78125 41.113281 349.78125 L 333.804688 349.78125 C 359.121094 349.78125 374.945312 322.378906 362.285156 300.460938 L 215.941406 47.054688 C 203.28125 25.132812 171.632812 25.132812 158.976562 47.054688 " fill-opacity="1" fill-rule="nonzero"/></g><path fill="#000000" d="M 187.457031 61.300781 C 186.191406 61.300781 185.761719 62.042969 185.558594 62.398438 L 39.210938 315.804688 C 39.007812 316.160156 38.578125 316.898438 39.210938 317.992188 C 39.847656 319.089844 40.699219 319.089844 41.113281 319.089844 L 333.804688 319.089844 C 334.214844 319.089844 335.070312 319.089844 335.703125 317.992188 C 336.335938 316.898438 335.910156 316.160156 335.703125 315.804688 L 189.355469 62.398438 C 189.152344 62.042969 188.722656 61.300781 187.457031 61.300781 Z M 333.804688 336.628906 L 41.113281 336.628906 C 33.976562 336.628906 27.585938 332.941406 24.019531 326.761719 C 20.453125 320.589844 20.453125 313.214844 24.019531 307.035156 L 170.367188 53.628906 C 173.933594 47.453125 180.324219 43.769531 187.457031 43.769531 C 194.59375 43.769531 200.980469 47.453125 204.546875 53.628906 L 350.894531 307.035156 C 354.460938 313.210938 354.460938 320.585938 350.894531 326.761719 C 347.324219 332.941406 340.9375 336.628906 333.804688 336.628906 " fill-opacity="1" fill-rule="nonzero"/><path fill="#000000" d="M 187.574219 296.171875 C 182.753906 296.171875 178.542969 294.609375 174.949219 291.492188 C 171.347656 288.367188 169.550781 284.003906 169.550781 278.390625 C 169.550781 273.488281 171.269531 269.320312 174.710938 265.882812 C 178.148438 262.445312 182.359375 260.726562 187.339844 260.726562 C 192.320312 260.726562 196.566406 262.445312 200.085938 265.882812 C 203.605469 269.320312 205.363281 273.488281 205.363281 278.390625 C 205.363281 283.921875 203.582031 288.273438 200.027344 291.429688 C 196.46875 294.589844 192.320312 296.171875 187.574219 296.171875 Z M 174.414062 218.167969 L 170.621094 161.386719 C 169.910156 150.324219 169.550781 142.382812 169.550781 137.5625 C 169.550781 131.003906 171.269531 125.886719 174.710938 122.210938 C 178.148438 118.535156 182.671875 116.699219 188.285156 116.699219 C 195.085938 116.699219 199.628906 119.050781 201.925781 123.75 C 204.214844 128.453125 205.363281 135.230469 205.363281 144.082031 C 205.363281 149.296875 205.085938 154.59375 204.535156 159.96875 L 199.433594 218.40625 C 198.878906 225.363281 197.695312 230.695312 195.875 234.414062 C 194.054688 238.128906 191.050781 239.984375 186.863281 239.984375 C 182.597656 239.984375 179.632812 238.1875 177.96875 234.589844 C 176.3125 230.992188 175.125 225.519531 174.414062 218.167969 " fill-opacity="1" fill-rule="nonzero"/></svg>