<svg xmlns="http://www.w3.org/2000/svg" xmlns:xlink="http://www.w3.org/1999/xlink" width="1024" zoomAndPan="magnify" viewBox="0 0 768 767.999994" height="1024" preserveAspectRatio="xMidYMid meet" version="1.0"><defs><g/></defs><g fill="#ffffff" fill-opacity="1"><g transform="translate(43.048836, 508.886964)"><g><path d="M 218.625 -167.625 C 218.625 -152.40625 215.113281 -138.550781 208.09375 -126.0625 C 201.082031 -113.582031 190.503906 -103.597656 176.359375 -96.109375 C 162.210938 -88.617188 144.914062 -84.875 124.46875 -84.875 L 89.875 -84.875 L 89.875 0 L 19.96875 0 L 19.96875 -251.4375 L 124.46875 -251.4375 C 144.675781 -251.4375 161.851562 -247.867188 176 -240.734375 C 190.144531 -233.597656 200.785156 -223.726562 207.921875 -211.125 C 215.054688 -198.53125 218.625 -184.03125 218.625 -167.625 Z M 117.6875 -140.515625 C 137.425781 -140.515625 147.296875 -149.550781 147.296875 -167.625 C 147.296875 -185.925781 137.425781 -195.078125 117.6875 -195.078125 L 89.875 -195.078125 L 89.875 -140.515625 Z M 117.6875 -140.515625 "/></g></g></g><g fill="#ffffff" fill-opacity="1"><g transform="translate(269.87626, 508.886964)"><g><path d="M 113.0625 2.5 C 93.082031 2.5 75.1875 -1.660156 59.375 -9.984375 C 43.5625 -18.304688 31.140625 -30.191406 22.109375 -45.640625 C 13.078125 -61.097656 8.5625 -79.289062 8.5625 -100.21875 C 8.5625 -120.90625 13.132812 -138.972656 22.28125 -154.421875 C 31.4375 -169.878906 43.921875 -181.769531 59.734375 -190.09375 C 75.546875 -198.414062 93.4375 -202.578125 113.40625 -202.578125 C 133.382812 -202.578125 151.273438 -198.414062 167.078125 -190.09375 C 182.890625 -181.769531 195.375 -169.878906 204.53125 -154.421875 C 213.6875 -138.972656 218.265625 -120.90625 218.265625 -100.21875 C 218.265625 -79.53125 213.6875 -61.398438 204.53125 -45.828125 C 195.375 -30.253906 182.832031 -18.304688 166.90625 -9.984375 C 150.976562 -1.660156 133.03125 2.5 113.0625 2.5 Z M 113.0625 -58.125 C 122.800781 -58.125 130.941406 -61.75 137.484375 -69 C 144.023438 -76.257812 147.296875 -86.664062 147.296875 -100.21875 C 147.296875 -113.769531 144.023438 -124.109375 137.484375 -131.234375 C 130.941406 -138.367188 122.914062 -141.9375 113.40625 -141.9375 C 103.894531 -141.9375 95.929688 -138.367188 89.515625 -131.234375 C 83.097656 -124.109375 79.890625 -113.769531 79.890625 -100.21875 C 79.890625 -86.425781 82.976562 -75.960938 89.15625 -68.828125 C 95.34375 -61.691406 103.3125 -58.125 113.0625 -58.125 Z M 113.0625 -58.125 "/></g></g></g><g fill="#ffffff" fill-opacity="1"><g transform="translate(496.703684, 508.886964)"><g><path d="M 218.625 -167.625 C 218.625 -152.40625 215.113281 -138.550781 208.09375 -126.0625 C 201.082031 -113.582031 190.503906 -103.597656 176.359375 -96.109375 C 162.210938 -88.617188 144.914062 -84.875 124.46875 -84.875 L 89.875 -84.875 L 89.875 0 L 19.96875 0 L 19.96875 -251.4375 L 124.46875 -251.4375 C 144.675781 -251.4375 161.851562 -247.867188 176 -240.734375 C 190.144531 -233.597656 200.785156 -223.726562 207.921875 -211.125 C 215.054688 -198.53125 218.625 -184.03125 218.625 -167.625 Z M 117.6875 -140.515625 C 137.425781 -140.515625 147.296875 -149.550781 147.296875 -167.625 C 147.296875 -185.925781 137.425781 -195.078125 117.6875 -195.078125 L 89.875 -195.078125 L 89.875 -140.515625 Z M 117.6875 -140.515625 "/></g></g></g><g fill="#ffffff" fill-opacity="1"><g transform="translate(47.028432, 606.33299)"><g><path d="M 26.15625 -51.40625 C 29.695312 -51.40625 32.734375 -50.769531 35.265625 -49.5 C 37.796875 -48.238281 39.722656 -46.425781 41.046875 -44.0625 C 42.367188 -41.707031 43.03125 -38.9375 43.03125 -35.75 C 43.03125 -32.5625 42.367188 -29.796875 41.046875 -27.453125 C 39.722656 -25.109375 37.796875 -23.296875 35.265625 -22.015625 C 32.734375 -20.742188 29.695312 -20.109375 26.15625 -20.109375 L 13.8125 -20.109375 L 13.8125 0 L 7.765625 0 L 7.765625 -51.40625 Z M 25.984375 -25.28125 C 33.128906 -25.28125 36.703125 -28.769531 36.703125 -35.75 C 36.703125 -42.757812 33.128906 -46.265625 25.984375 -46.265625 L 13.8125 -46.265625 L 13.8125 -25.28125 Z M 25.984375 -25.28125 "/></g></g></g><g fill="#ffffff" fill-opacity="1"><g transform="translate(95.115714, 606.33299)"><g><path d="M 6.75 0 L 6.75 -38.78125 L 12.203125 -38.78125 L 12.203125 -32.703125 L 12.9375 -32.515625 C 14.738281 -36.921875 18.140625 -39.125 23.140625 -39.125 C 25.785156 -39.125 27.765625 -38.644531 29.078125 -37.6875 L 27.59375 -32.84375 L 26.890625 -32.703125 C 25.441406 -33.421875 23.847656 -33.78125 22.109375 -33.78125 C 19.015625 -33.78125 16.632812 -32.617188 14.96875 -30.296875 C 13.3125 -27.984375 12.484375 -24.222656 12.484375 -19.015625 L 12.484375 0 Z M 6.75 0 "/></g></g></g><g fill="#ffffff" fill-opacity="1"><g transform="translate(126.292841, 606.33299)"><g><path d="M 22.25 0.734375 C 18.59375 0.734375 15.410156 -0.0351562 12.703125 -1.578125 C 10.003906 -3.128906 7.921875 -5.410156 6.453125 -8.421875 C 4.984375 -11.429688 4.25 -15.082031 4.25 -19.375 C 4.25 -23.664062 4.984375 -27.320312 6.453125 -30.34375 C 7.921875 -33.363281 10.003906 -35.644531 12.703125 -37.1875 C 15.410156 -38.738281 18.59375 -39.515625 22.25 -39.515625 C 25.90625 -39.515625 29.085938 -38.738281 31.796875 -37.1875 C 34.503906 -35.644531 36.585938 -33.363281 38.046875 -30.34375 C 39.515625 -27.320312 40.25 -23.664062 40.25 -19.375 C 40.25 -15.082031 39.515625 -11.429688 38.046875 -8.421875 C 36.585938 -5.410156 34.503906 -3.128906 31.796875 -1.578125 C 29.085938 -0.0351562 25.90625 0.734375 22.25 0.734375 Z M 22.25 -4.390625 C 26.125 -4.390625 29.082031 -5.609375 31.125 -8.046875 C 33.175781 -10.484375 34.203125 -14.257812 34.203125 -19.375 C 34.203125 -24.507812 33.175781 -28.296875 31.125 -30.734375 C 29.082031 -33.171875 26.125 -34.390625 22.25 -34.390625 C 18.382812 -34.390625 15.421875 -33.160156 13.359375 -30.703125 C 11.296875 -28.253906 10.265625 -24.476562 10.265625 -19.375 C 10.265625 -14.257812 11.296875 -10.484375 13.359375 -8.046875 C 15.421875 -5.609375 18.382812 -4.390625 22.25 -4.390625 Z M 22.25 -4.390625 "/></g></g></g><g fill="#ffffff" fill-opacity="1"><g transform="translate(172.024654, 606.33299)"><g><path d="M 22.25 0.734375 C 18.59375 0.734375 15.410156 -0.0351562 12.703125 -1.578125 C 10.003906 -3.128906 7.921875 -5.410156 6.453125 -8.421875 C 4.984375 -11.429688 4.25 -15.082031 4.25 -19.375 C 4.25 -23.664062 4.984375 -27.320312 6.453125 -30.34375 C 7.921875 -33.363281 10.003906 -35.644531 12.703125 -37.1875 C 15.410156 -38.738281 18.59375 -39.515625 22.25 -39.515625 C 25.90625 -39.515625 29.085938 -38.738281 31.796875 -37.1875 C 34.503906 -35.644531 36.585938 -33.363281 38.046875 -30.34375 C 39.515625 -27.320312 40.25 -23.664062 40.25 -19.375 C 40.25 -15.082031 39.515625 -11.429688 38.046875 -8.421875 C 36.585938 -5.410156 34.503906 -3.128906 31.796875 -1.578125 C 29.085938 -0.0351562 25.90625 0.734375 22.25 0.734375 Z M 22.25 -4.390625 C 26.125 -4.390625 29.082031 -5.609375 31.125 -8.046875 C 33.175781 -10.484375 34.203125 -14.257812 34.203125 -19.375 C 34.203125 -24.507812 33.175781 -28.296875 31.125 -30.734375 C 29.082031 -33.171875 26.125 -34.390625 22.25 -34.390625 C 18.382812 -34.390625 15.421875 -33.160156 13.359375 -30.703125 C 11.296875 -28.253906 10.265625 -24.476562 10.265625 -19.375 C 10.265625 -14.257812 11.296875 -10.484375 13.359375 -8.046875 C 15.421875 -5.609375 18.382812 -4.390625 22.25 -4.390625 Z M 22.25 -4.390625 "/></g></g></g><g fill="#ffffff" fill-opacity="1"><g transform="translate(217.756467, 606.33299)"><g><path d="M 20.640625 -50.234375 C 18.367188 -50.234375 16.648438 -49.644531 15.484375 -48.46875 C 14.328125 -47.300781 13.75 -45.640625 13.75 -43.484375 C 13.75 -42.128906 13.957031 -40.5625 14.375 -38.78125 L 26.71875 -38.78125 L 26.71875 -34.0625 L 14.375 -34.0625 L 14.375 0 L 8.65625 0 L 8.65625 -34.0625 L 1.90625 -34.0625 L 1.90625 -38.78125 L 8.65625 -38.78125 C 8.226562 -40.46875 8.015625 -42.082031 8.015625 -43.625 C 8.015625 -46.132812 8.546875 -48.25 9.609375 -49.96875 C 10.679688 -51.695312 12.164062 -52.984375 14.0625 -53.828125 C 15.957031 -54.671875 18.148438 -55.09375 20.640625 -55.09375 C 24.503906 -55.09375 27.46875 -54.257812 29.53125 -52.59375 L 27.3125 -48.546875 L 26.578125 -48.40625 C 25.054688 -49.625 23.078125 -50.234375 20.640625 -50.234375 Z M 20.640625 -50.234375 "/></g></g></g><g fill="#ffffff" fill-opacity="1"><g transform="translate(246.610454, 606.33299)"><g/></g></g><g fill="#ffffff" fill-opacity="1"><g transform="translate(265.48289, 606.33299)"><g/></g></g><g fill="#ffffff" fill-opacity="1"><g transform="translate(284.355327, 606.33299)"><g/></g></g><g fill="#ffffff" fill-opacity="1"><g transform="translate(303.223736, 606.33299)"><g><path d="M 28.203125 0.734375 C 23.742188 0.734375 19.78125 -0.222656 16.3125 -2.140625 C 12.84375 -4.066406 10.113281 -7.003906 8.125 -10.953125 C 6.132812 -14.898438 5.140625 -19.816406 5.140625 -25.703125 C 5.140625 -31.585938 6.132812 -36.503906 8.125 -40.453125 C 10.113281 -44.398438 12.84375 -47.332031 16.3125 -49.25 C 19.78125 -51.175781 23.742188 -52.140625 28.203125 -52.140625 C 32.648438 -52.140625 36.609375 -51.175781 40.078125 -49.25 C 43.546875 -47.332031 46.273438 -44.398438 48.265625 -40.453125 C 50.265625 -36.503906 51.265625 -31.585938 51.265625 -25.703125 C 51.265625 -19.816406 50.265625 -14.898438 48.265625 -10.953125 C 46.273438 -7.003906 43.546875 -4.066406 40.078125 -2.140625 C 36.609375 -0.222656 32.648438 0.734375 28.203125 0.734375 Z M 28.203125 -4.859375 C 33.546875 -4.859375 37.644531 -6.523438 40.5 -9.859375 C 43.363281 -13.203125 44.796875 -18.484375 44.796875 -25.703125 C 44.796875 -32.921875 43.363281 -38.195312 40.5 -41.53125 C 37.644531 -44.875 33.546875 -46.546875 28.203125 -46.546875 C 17.140625 -46.546875 11.609375 -39.597656 11.609375 -25.703125 C 11.609375 -11.804688 17.140625 -4.859375 28.203125 -4.859375 Z M 28.203125 -4.859375 "/></g></g></g><g fill="#ffffff" fill-opacity="1"><g transform="translate(360.838361, 606.33299)"><g><path d="M 20.640625 -50.234375 C 18.367188 -50.234375 16.648438 -49.644531 15.484375 -48.46875 C 14.328125 -47.300781 13.75 -45.640625 13.75 -43.484375 C 13.75 -42.128906 13.957031 -40.5625 14.375 -38.78125 L 26.71875 -38.78125 L 26.71875 -34.0625 L 14.375 -34.0625 L 14.375 0 L 8.65625 0 L 8.65625 -34.0625 L 1.90625 -34.0625 L 1.90625 -38.78125 L 8.65625 -38.78125 C 8.226562 -40.46875 8.015625 -42.082031 8.015625 -43.625 C 8.015625 -46.132812 8.546875 -48.25 9.609375 -49.96875 C 10.679688 -51.695312 12.164062 -52.984375 14.0625 -53.828125 C 15.957031 -54.671875 18.148438 -55.09375 20.640625 -55.09375 C 24.503906 -55.09375 27.46875 -54.257812 29.53125 -52.59375 L 27.3125 -48.546875 L 26.578125 -48.40625 C 25.054688 -49.625 23.078125 -50.234375 20.640625 -50.234375 Z M 20.640625 -50.234375 "/></g></g></g><g fill="#ffffff" fill-opacity="1"><g transform="translate(389.684669, 606.33299)"><g/></g></g><g fill="#ffffff" fill-opacity="1"><g transform="translate(408.557106, 606.33299)"><g/></g></g><g fill="#ffffff" fill-opacity="1"><g transform="translate(427.429542, 606.33299)"><g/></g></g><g fill="#ffffff" fill-opacity="1"><g transform="translate(446.301976, 606.33299)"><g/></g></g><g fill="#ffffff" fill-opacity="1"><g transform="translate(465.174415, 606.33299)"><g/></g></g><g fill="#ffffff" fill-opacity="1"><g transform="translate(484.046855, 606.33299)"><g/></g></g><g fill="#ffffff" fill-opacity="1"><g transform="translate(502.911226, 606.33299)"><g><path d="M 26.15625 -51.40625 C 29.695312 -51.40625 32.734375 -50.769531 35.265625 -49.5 C 37.796875 -48.238281 39.722656 -46.425781 41.046875 -44.0625 C 42.367188 -41.707031 43.03125 -38.9375 43.03125 -35.75 C 43.03125 -32.5625 42.367188 -29.796875 41.046875 -27.453125 C 39.722656 -25.109375 37.796875 -23.296875 35.265625 -22.015625 C 32.734375 -20.742188 29.695312 -20.109375 26.15625 -20.109375 L 13.8125 -20.109375 L 13.8125 0 L 7.765625 0 L 7.765625 -51.40625 Z M 25.984375 -25.28125 C 33.128906 -25.28125 36.703125 -28.769531 36.703125 -35.75 C 36.703125 -42.757812 33.128906 -46.265625 25.984375 -46.265625 L 13.8125 -46.265625 L 13.8125 -25.28125 Z M 25.984375 -25.28125 "/></g></g></g><g fill="#ffffff" fill-opacity="1"><g transform="translate(550.998508, 606.33299)"><g><path d="M 19.15625 0.734375 C 14.78125 0.734375 11.519531 -0.421875 9.375 -2.734375 C 7.226562 -5.054688 6.15625 -8.457031 6.15625 -12.9375 L 6.15625 -38.78125 L 11.890625 -38.78125 L 11.890625 -13.078125 C 11.890625 -7.191406 14.65625 -4.25 20.1875 -4.25 C 23.695312 -4.25 26.472656 -5.394531 28.515625 -7.6875 C 30.554688 -9.988281 31.578125 -13.71875 31.578125 -18.875 L 31.578125 -38.78125 L 37.296875 -38.78125 L 37.296875 0 L 31.890625 0 L 31.890625 -6.078125 L 31.15625 -6.265625 C 29.8125 -3.890625 28.207031 -2.128906 26.34375 -0.984375 C 24.488281 0.160156 22.09375 0.734375 19.15625 0.734375 Z M 19.15625 0.734375 "/></g></g></g><g fill="#ffffff" fill-opacity="1"><g transform="translate(596.27329, 606.33299)"><g><path d="M 6.75 0 L 6.75 -38.78125 L 12.203125 -38.78125 L 12.203125 -32.703125 L 12.9375 -32.515625 C 14.738281 -36.921875 18.140625 -39.125 23.140625 -39.125 C 25.785156 -39.125 27.765625 -38.644531 29.078125 -37.6875 L 27.59375 -32.84375 L 26.890625 -32.703125 C 25.441406 -33.421875 23.847656 -33.78125 22.109375 -33.78125 C 19.015625 -33.78125 16.632812 -32.617188 14.96875 -30.296875 C 13.3125 -27.984375 12.484375 -24.222656 12.484375 -19.015625 L 12.484375 0 Z M 6.75 0 "/></g></g></g><g fill="#ffffff" fill-opacity="1"><g transform="translate(627.450416, 606.33299)"><g><path d="M 9.640625 -46.265625 C 8.421875 -46.265625 7.425781 -46.644531 6.65625 -47.40625 C 5.894531 -48.164062 5.515625 -49.132812 5.515625 -50.3125 C 5.515625 -51.476562 5.894531 -52.441406 6.65625 -53.203125 C 7.425781 -53.972656 8.421875 -54.359375 9.640625 -54.359375 C 10.859375 -54.359375 11.847656 -53.972656 12.609375 -53.203125 C 13.367188 -52.441406 13.75 -51.476562 13.75 -50.3125 C 13.75 -49.132812 13.367188 -48.164062 12.609375 -47.40625 C 11.847656 -46.644531 10.859375 -46.265625 9.640625 -46.265625 Z M 12.484375 0 L 6.75 0 L 6.75 -38.78125 L 12.484375 -38.78125 Z M 12.484375 0 "/></g></g></g><g fill="#ffffff" fill-opacity="1"><g transform="translate(647.904887, 606.33299)"><g><path d="M 26.234375 -6.15625 L 28.0625 -2.046875 C 27.144531 -1.128906 25.941406 -0.4375 24.453125 0.03125 C 22.960938 0.5 21.351562 0.734375 19.625 0.734375 C 12.21875 0.734375 8.515625 -3.015625 8.515625 -10.515625 L 8.515625 -34.0625 L 1.765625 -34.0625 L 1.765625 -38.78125 L 8.515625 -38.78125 L 8.515625 -47 L 14.234375 -47.953125 L 14.234375 -38.78125 L 26.71875 -38.78125 L 26.71875 -34.0625 L 14.234375 -34.0625 L 14.234375 -11.078125 C 14.234375 -6.617188 16.171875 -4.390625 20.046875 -4.390625 C 22.148438 -4.390625 23.960938 -4.976562 25.484375 -6.15625 Z M 26.234375 -6.15625 "/></g></g></g><g fill="#ffffff" fill-opacity="1"><g transform="translate(678.660138, 606.33299)"><g><path d="M 32.84375 -38.78125 L 38.703125 -38.78125 L 21.375 6.078125 C 20.394531 8.566406 19.296875 10.566406 18.078125 12.078125 C 16.859375 13.585938 15.414062 14.691406 13.75 15.390625 C 12.082031 16.097656 10.085938 16.453125 7.765625 16.453125 C 6.453125 16.453125 5.226562 16.335938 4.09375 16.109375 C 2.957031 15.890625 1.976562 15.582031 1.15625 15.1875 L 2.21875 10.65625 L 2.84375 10.4375 C 3.40625 10.71875 4.109375 10.957031 4.953125 11.15625 C 5.796875 11.363281 6.664062 11.46875 7.5625 11.46875 C 9.132812 11.46875 10.4375 11.253906 11.46875 10.828125 C 12.5 10.410156 13.378906 9.710938 14.109375 8.734375 C 14.847656 7.765625 15.535156 6.425781 16.171875 4.71875 L 17.546875 0.921875 L 1.96875 -38.78125 L 8.15625 -38.78125 L 20.359375 -7.140625 L 21.03125 -7.140625 Z M 32.84375 -38.78125 "/></g></g></g></svg>