<svg xmlns="http://www.w3.org/2000/svg" xmlns:xlink="http://www.w3.org/1999/xlink" width="325" zoomAndPan="magnify" viewBox="0 0 243.75 243.749992" height="325" preserveAspectRatio="xMidYMid meet" version="1.0"><defs><g/><clipPath id="12beef217d"><path d="M 0 89.644531 L 243.5 89.644531 L 243.5 146.644531 L 0 146.644531 Z M 0 89.644531 " clip-rule="nonzero"/></clipPath><clipPath id="aadfc20389"><path d="M 199.792969 103.339844 L 228.292969 103.339844 L 228.292969 131.839844 L 199.792969 131.839844 Z M 199.792969 103.339844 " clip-rule="nonzero"/></clipPath></defs><g clip-path="url(#12beef217d)"><path fill="#000000" d="M 1.5 89.644531 L 242.25 89.644531 C 242.648438 89.644531 243.027344 89.804688 243.308594 90.085938 C 243.589844 90.371094 243.75 90.753906 243.75 91.152344 L 243.75 145.136719 C 243.75 145.535156 243.589844 145.917969 243.308594 146.203125 C 243.027344 146.484375 242.648438 146.644531 242.25 146.644531 L 1.5 146.644531 C 1.101562 146.644531 0.722656 146.484375 0.441406 146.203125 C 0.160156 145.917969 0 145.535156 0 145.136719 L 0 91.152344 C 0 90.753906 0.160156 90.371094 0.441406 90.085938 C 0.722656 89.804688 1.101562 89.644531 1.5 89.644531 " fill-opacity="1" fill-rule="nonzero"/></g><g clip-path="url(#aadfc20389)"><path fill="#fefefe" d="M 225.003906 109.917969 C 225.003906 109.917969 205.976562 109.917969 202.695312 109.917969 C 201.734375 109.917969 200.878906 109.726562 200.878906 108.824219 L 225.003906 107.726562 L 225.003906 105.535156 C 225.003906 103.71875 223.53125 103.339844 221.71875 103.339844 L 202.007812 106.628906 C 200.253906 107.019531 199.792969 107.765625 199.792969 108.824219 L 199.792969 128.554688 C 199.792969 130.367188 201.265625 131.839844 203.082031 131.839844 L 225.003906 131.839844 C 226.820312 131.839844 228.292969 130.367188 228.292969 128.554688 L 228.292969 113.207031 C 228.292969 111.390625 226.820312 109.917969 225.003906 109.917969 Z M 223.910156 123.074219 C 222.699219 123.074219 221.71875 122.089844 221.71875 120.878906 C 221.71875 119.671875 222.699219 118.6875 223.910156 118.6875 C 225.121094 118.6875 226.101562 119.671875 226.101562 120.878906 C 226.101562 122.089844 225.121094 123.074219 223.910156 123.074219 Z M 223.910156 123.074219 " fill-opacity="1" fill-rule="nonzero"/></g><g fill="#fefefe" fill-opacity="1"><g transform="translate(15.812266, 125.912002)"><g><path d="M 0.886719 -7.910156 C 0.886719 -5.703125 1.839844 -3.683594 3.203125 -2.226562 C 4.589844 -0.773438 6.589844 0.113281 8.75 0.113281 C 12.453125 0.113281 15.363281 -2.339844 16.273438 -5.953125 L 14.023438 -5.953125 C 13.203125 -3.546875 11.160156 -2.160156 8.75 -2.160156 C 7.226562 -2.160156 5.703125 -2.796875 4.703125 -3.839844 C 3.703125 -4.886719 3.113281 -6.316406 3.113281 -7.910156 C 3.113281 -9.546875 3.726562 -10.953125 4.726562 -12 C 5.726562 -13.046875 7.226562 -13.773438 8.75 -13.773438 C 11.089844 -13.773438 13.046875 -12.5 13.886719 -10.113281 L 16.160156 -10.113281 C 15.25 -13.703125 12.386719 -16.046875 8.75 -16.046875 C 6.589844 -16.046875 4.523438 -15.046875 3.136719 -13.613281 C 1.773438 -12.160156 0.886719 -10.160156 0.886719 -7.910156 Z M 0.886719 -7.910156 "/></g></g></g><g fill="#fefefe" fill-opacity="1"><g transform="translate(32.948664, 125.912002)"><g><path d="M 14.433594 -6.136719 C 14.433594 -10.363281 11.160156 -12.5 7.839844 -12.5 C 4.5 -12.5 1.183594 -10.386719 1.183594 -6.136719 C 1.183594 -1.910156 4.476562 0.226562 7.773438 0.226562 C 11.113281 0.226562 14.433594 -1.886719 14.433594 -6.136719 Z M 3.410156 -6.136719 C 3.410156 -9.066406 5.613281 -10.523438 7.839844 -10.523438 C 10.023438 -10.523438 12.226562 -9.046875 12.226562 -6.136719 C 12.226562 -3.25 10.023438 -1.773438 7.816406 -1.773438 C 5.613281 -1.773438 3.410156 -3.226562 3.410156 -6.136719 Z M 3.410156 -6.136719 "/></g></g></g><g fill="#fefefe" fill-opacity="1"><g transform="translate(48.721422, 125.912002)"><g><path d="M 3.933594 -10.773438 L 3.933594 -12.296875 L 1.703125 -12.296875 L 1.703125 0 L 3.933594 0 L 3.933594 -6.683594 C 3.933594 -8.816406 5.203125 -10.5 7.546875 -10.5 C 10.226562 -10.5 10.839844 -8.910156 10.839844 -6.589844 L 10.839844 0 L 13.046875 0 L 13.046875 -6.613281 C 13.046875 -10.136719 11.453125 -12.476562 7.703125 -12.476562 C 6.160156 -12.476562 4.839844 -12.089844 3.933594 -10.773438 Z M 3.933594 -10.773438 "/></g></g></g><g fill="#fefefe" fill-opacity="1"><g transform="translate(63.448722, 125.912002)"><g><path d="M 3.933594 -10.773438 L 3.933594 -12.296875 L 1.703125 -12.296875 L 1.703125 0 L 3.933594 0 L 3.933594 -6.683594 C 3.933594 -8.816406 5.203125 -10.5 7.546875 -10.5 C 10.226562 -10.5 10.839844 -8.910156 10.839844 -6.589844 L 10.839844 0 L 13.046875 0 L 13.046875 -6.613281 C 13.046875 -10.136719 11.453125 -12.476562 7.703125 -12.476562 C 6.160156 -12.476562 4.839844 -12.089844 3.933594 -10.773438 Z M 3.933594 -10.773438 "/></g></g></g><g fill="#fefefe" fill-opacity="1"><g transform="translate(78.176023, 125.912002)"><g><path d="M 13.773438 -6.683594 C 13.523438 -10.546875 10.523438 -12.476562 7.476562 -12.476562 C 4.226562 -12.476562 1.089844 -10.363281 1.089844 -6.136719 C 1.089844 -1.910156 4.273438 0.226562 7.433594 0.226562 C 9.953125 0.226562 12.476562 -1.113281 13.410156 -3.796875 L 11.113281 -3.796875 C 10.386719 -2.410156 8.976562 -1.75 7.453125 -1.75 C 5.613281 -1.75 3.316406 -3.203125 3.316406 -5.613281 L 13.726562 -5.613281 C 13.773438 -5.816406 13.796875 -6.046875 13.796875 -6.296875 C 13.796875 -6.433594 13.796875 -6.546875 13.773438 -6.683594 Z M 11.433594 -7.453125 L 3.410156 -7.453125 C 3.863281 -9.636719 5.683594 -10.523438 7.476562 -10.523438 C 9.25 -10.523438 11 -9.660156 11.433594 -7.453125 Z M 11.433594 -7.453125 "/></g></g></g><g fill="#fefefe" fill-opacity="1"><g transform="translate(93.176057, 125.912002)"><g><path d="M 13.75 -4.683594 L 11.453125 -4.683594 C 10.910156 -2.726562 9.273438 -1.773438 7.589844 -1.773438 C 5.476562 -1.773438 3.386719 -3.203125 3.386719 -6.160156 C 3.386719 -9.089844 5.5 -10.523438 7.566406 -10.523438 C 9.25 -10.523438 10.910156 -9.566406 11.453125 -7.613281 L 13.75 -7.613281 C 13.136719 -10.886719 10.339844 -12.5 7.546875 -12.5 C 4.339844 -12.5 1.160156 -10.410156 1.160156 -6.160156 C 1.160156 -1.933594 4.316406 0.183594 7.5 0.183594 C 10.296875 0.183594 13.136719 -1.386719 13.75 -4.683594 Z M 13.75 -4.683594 "/></g></g></g><g fill="#fefefe" fill-opacity="1"><g transform="translate(108.062454, 125.912002)"><g><path d="M 4.613281 -12.296875 L 4.613281 -15.023438 L 2.386719 -14.589844 L 2.386719 -12.296875 L 0.546875 -12.296875 L 0.546875 -10.523438 L 2.386719 -10.523438 L 2.386719 -3.613281 C 2.386719 -0.75 3.953125 0.0664062 6.363281 0.0664062 C 6.683594 0.0664062 7.023438 0.046875 7.386719 0.0234375 L 7.386719 -1.839844 C 7.046875 -1.816406 6.726562 -1.796875 6.453125 -1.796875 C 5.339844 -1.796875 4.613281 -2.136719 4.613281 -3.589844 L 4.613281 -10.523438 L 7.316406 -10.523438 L 7.316406 -12.296875 Z M 4.613281 -12.296875 "/></g></g></g><g fill="#fefefe" fill-opacity="1"><g transform="translate(115.880655, 125.912002)"><g/></g></g><g fill="#fefefe" fill-opacity="1"><g transform="translate(121.539762, 125.912002)"><g><path d="M 9.75 -7.566406 L 12.546875 0.0898438 L 14.160156 0.0898438 L 19.523438 -16.070312 L 17.113281 -16.070312 C 15.933594 -12.453125 14.523438 -8.226562 13.273438 -4.433594 L 10.683594 -11.839844 L 8.839844 -11.839844 L 6.226562 -4.410156 L 2.363281 -16.070312 L -0.0234375 -16.070312 L 5.386719 0.0898438 L 7 0.0898438 C 7.816406 -2.316406 8.839844 -4.976562 9.75 -7.566406 Z M 9.75 -7.566406 "/></g></g></g><g fill="#fefefe" fill-opacity="1"><g transform="translate(140.948891, 125.912002)"><g><path d="M 14.476562 0 L 14.476562 -12.296875 L 12.25 -12.296875 L 12.273438 -10.660156 C 11.183594 -12.136719 9.339844 -12.5 7.816406 -12.5 C 3.660156 -12.5 1.25 -9.523438 1.25 -6.203125 C 1.25 -2.816406 3.566406 0.203125 7.863281 0.203125 C 9.386719 0.183594 11.363281 -0.316406 12.25 -1.660156 L 12.25 0 Z M 12.25 -6.160156 C 12.25 -3.203125 9.863281 -1.773438 7.816406 -1.773438 C 5.089844 -1.773438 3.476562 -3.886719 3.476562 -6.203125 C 3.476562 -8.636719 5.113281 -10.546875 7.816406 -10.546875 C 9.910156 -10.546875 12.25 -9.089844 12.25 -6.160156 Z M 12.25 -6.160156 "/></g></g></g><g fill="#fefefe" fill-opacity="1"><g transform="translate(156.903465, 125.912002)"><g><path d="M 1.703125 0 L 3.933594 0 L 3.933594 -15.910156 L 1.703125 -15.910156 Z M 1.703125 0 "/></g></g></g><g fill="#fefefe" fill-opacity="1"><g transform="translate(162.539843, 125.912002)"><g><path d="M 1.703125 0 L 3.933594 0 L 3.933594 -15.910156 L 1.703125 -15.910156 Z M 1.703125 0 "/></g></g></g><g fill="#fefefe" fill-opacity="1"><g transform="translate(168.176221, 125.912002)"><g><path d="M 13.773438 -6.683594 C 13.523438 -10.546875 10.523438 -12.476562 7.476562 -12.476562 C 4.226562 -12.476562 1.089844 -10.363281 1.089844 -6.136719 C 1.089844 -1.910156 4.273438 0.226562 7.433594 0.226562 C 9.953125 0.226562 12.476562 -1.113281 13.410156 -3.796875 L 11.113281 -3.796875 C 10.386719 -2.410156 8.976562 -1.75 7.453125 -1.75 C 5.613281 -1.75 3.316406 -3.203125 3.316406 -5.613281 L 13.726562 -5.613281 C 13.773438 -5.816406 13.796875 -6.046875 13.796875 -6.296875 C 13.796875 -6.433594 13.796875 -6.546875 13.773438 -6.683594 Z M 11.433594 -7.453125 L 3.410156 -7.453125 C 3.863281 -9.636719 5.683594 -10.523438 7.476562 -10.523438 C 9.25 -10.523438 11 -9.660156 11.433594 -7.453125 Z M 11.433594 -7.453125 "/></g></g></g><g fill="#fefefe" fill-opacity="1"><g transform="translate(183.176255, 125.912002)"><g><path d="M 4.613281 -12.296875 L 4.613281 -15.023438 L 2.386719 -14.589844 L 2.386719 -12.296875 L 0.546875 -12.296875 L 0.546875 -10.523438 L 2.386719 -10.523438 L 2.386719 -3.613281 C 2.386719 -0.75 3.953125 0.0664062 6.363281 0.0664062 C 6.683594 0.0664062 7.023438 0.046875 7.386719 0.0234375 L 7.386719 -1.839844 C 7.046875 -1.816406 6.726562 -1.796875 6.453125 -1.796875 C 5.339844 -1.796875 4.613281 -2.136719 4.613281 -3.589844 L 4.613281 -10.523438 L 7.316406 -10.523438 L 7.316406 -12.296875 Z M 4.613281 -12.296875 "/></g></g></g></svg>